name Walk6.mot
datacolumns 19
datarows 10
range 2.38000000 2.42500000
endheader

                time	   L_ground_force_vx	   L_ground_force_vy	   L_ground_force_vz	   L_ground_force_px	   L_ground_force_py	   L_ground_force_pz	   R_ground_force_vx	   R_ground_force_vy	   R_ground_force_vz	   R_ground_force_px	   R_ground_force_py	   R_ground_force_pz	   L_ground_torque_x	   L_ground_torque_y	   L_ground_torque_z	   R_ground_torque_x	   R_ground_torque_y	   R_ground_torque_z	
          2.38000000	         -0.00000000	         -0.00000000	          0.00000000	          0.00000000	          0.00000000	          0.00000000	          0.01666828	         -0.85589409	         -0.05422135	         -0.01212229	          0.00000000	         -0.00222774	          0.00000000	         -0.00000000	          0.00000000	          0.00000000	         -0.00264216	          0.00000000	
          2.38500000	          0.00000000	         -0.00000000	          0.00000000	          0.00000000	          0.00000000	          0.00000000	          0.01258032	         -0.21603148	         -0.02025491	         -0.00533446	          0.00000000	         -0.00099269	          0.00000000	         -0.00000000	          0.00000000	          0.00000000	         -0.00121684	          0.00000000	
          2.39000000	          0.00000000	          0.00000000	         -0.00000000	         -0.00000000	          0.00000000	         -0.00000000	          0.00173377	          0.03204318	          0.00018013	         -0.00018671	          0.00000000	         -0.00003779	          0.00000000	          0.00000000	          0.00000000	          0.00000000	         -0.00005594	          0.00000000	
          2.39500000	          0.00000000	          0.00000000	         -0.00000000	         -0.00000000	          0.00000000	         -0.00000000	         -0.00087691	          0.03246519	          0.00224864	          0.00052628	          0.00000000	          0.00009708	          0.00000000	          0.00000000	          0.00000000	          0.00000000	          0.00011629	          0.00000000	
          2.40000000	         -0.00000000	          0.00000000	         -0.00000000	         -0.00000000	          0.00000000	         -0.00000000	         -0.00043507	          0.00566477	          0.00061365	          0.00016846	          0.00000000	          0.00003144	          0.00000000	          0.00000000	          0.00000000	          0.00000000	          0.00003882	          0.00000000	
          2.40500000	         -0.00000000	         -0.00000000	          0.00000000	          0.00000000	          0.00000000	          0.00000000	         -0.00002735	         -0.00192775	         -0.00007121	         -0.00000967	          0.00000000	         -0.00000168	          0.00000000	         -0.00000000	          0.00000000	          0.00000000	         -0.00000169	          0.00000000	
          2.41000000	         -0.00000000	         -0.00000000	          0.00000000	          0.00000000	          0.00000000	          0.00000000	          0.00003951	         -0.00115753	         -0.00008664	         -0.00002100	          0.00000000	         -0.00000388	          0.00000000	         -0.00000000	          0.00000000	          0.00000000	         -0.00000469	          0.00000000	
          2.41500000	          0.00000000	          0.00000000	         -0.00000000	          0.00000000	          0.00000000	          0.00000000	          0.00001409	         -0.00011676	         -0.00001667	         -0.00000486	          0.00000000	         -0.00000091	          0.00000000	         -0.00000000	          0.00000000	          0.00000000	         -0.00000114	          0.00000000	
          2.42000000	          0.00000000	          0.00000000	         -0.00000000	         -0.00000000	          0.00000000	         -0.00000000	         -0.00000032	          0.00009273	          0.00000471	          0.00000091	          0.00000000	          0.00000016	          0.00000000	          0.00000000	          0.00000000	          0.00000000	          0.00000019	          0.00000000	
          2.42500000	          0.00000000	          0.00000000	         -0.00000000	         -0.00000000	          0.00000000	         -0.00000000	         -0.00000162	          0.00003878	          0.00000313	          0.00000078	          0.00000000	          0.00000015	          0.00000000	          0.00000000	          0.00000000	          0.00000000	          0.00000018	          0.00000000	
